<svg width="46" height="31" viewBox="0 0 46 31" fill="none" xmlns="http://www.w3.org/2000/svg">
<path d="M19.4766 30L16.6289 22.3535H6.55664L3.74414 30H0L9.80859 4.19531H13.5L23.2559 30H19.4766ZM15.627 19.2246L12.9199 11.6484C12.8379 11.3906 12.709 11.0039 12.5332 10.4883C12.3691 9.97266 12.1992 9.43945 12.0234 8.88867C11.8594 8.33789 11.7246 7.88086 11.6191 7.51758C11.502 7.99805 11.3672 8.50781 11.2148 9.04688C11.0625 9.57422 10.9102 10.0723 10.7578 10.541C10.6172 10.998 10.5 11.3672 10.4062 11.6484L7.66406 19.2246H15.627Z" fill="#E87C40"/>
<path d="M33.7324 10.2949C36.123 10.2949 37.9102 10.8281 39.0938 11.8945C40.2773 12.9492 40.8691 14.6191 40.8691 16.9043V30H38.3379L37.6523 27.1875H37.5117C36.9727 27.8906 36.4102 28.4766 35.8242 28.9453C35.2383 29.4141 34.5586 29.7656 33.7852 30C33.0234 30.2344 32.0918 30.3516 30.9902 30.3516C29.8184 30.3516 28.7754 30.1406 27.8613 29.7188C26.9473 29.2969 26.2266 28.6641 25.6992 27.8203C25.1836 26.9648 24.9258 25.8809 24.9258 24.5684C24.9258 22.5996 25.6816 21.1055 27.1934 20.0859C28.7051 19.0664 30.9961 18.5098 34.0664 18.416L37.4062 18.2754V17.1855C37.4062 15.6738 37.0664 14.6074 36.3867 13.9863C35.7188 13.3652 34.7812 13.0547 33.5742 13.0547C32.5781 13.0547 31.623 13.2012 30.709 13.4941C29.7949 13.7754 28.916 14.1152 28.0723 14.5137L26.9473 11.9473C27.8613 11.4785 28.8984 11.0859 30.0586 10.7695C31.2305 10.4531 32.4551 10.2949 33.7324 10.2949ZM37.3711 20.5957L34.6641 20.7188C32.4258 20.8008 30.8496 21.1758 29.9355 21.8438C29.0332 22.5 28.582 23.4199 28.582 24.6035C28.582 25.6348 28.8926 26.3906 29.5137 26.8711C30.1348 27.3516 30.9551 27.5918 31.9746 27.5918C33.5449 27.5918 34.834 27.1523 35.8418 26.2734C36.8613 25.3828 37.3711 24.0703 37.3711 22.3359V20.5957Z" fill="#E87C40"/>
<path d="M24.4766 26L21.6289 18.3535H11.5566L8.74414 26H5L14.8086 0.195312H18.5L28.2559 26H24.4766ZM20.627 15.2246L17.9199 7.64844C17.8379 7.39062 17.709 7.00391 17.5332 6.48828C17.3691 5.97266 17.1992 5.43945 17.0234 4.88867C16.8594 4.33789 16.7246 3.88086 16.6191 3.51758C16.502 3.99805 16.3672 4.50781 16.2148 5.04688C16.0625 5.57422 15.9102 6.07227 15.7578 6.54102C15.6172 6.99805 15.5 7.36719 15.4062 7.64844L12.6641 15.2246H20.627Z" fill="#110303"/>
<path d="M38.7324 6.29492C41.123 6.29492 42.9102 6.82812 44.0938 7.89453C45.2773 8.94922 45.8691 10.6191 45.8691 12.9043V26H43.3379L42.6523 23.1875H42.5117C41.9727 23.8906 41.4102 24.4766 40.8242 24.9453C40.2383 25.4141 39.5586 25.7656 38.7852 26C38.0234 26.2344 37.0918 26.3516 35.9902 26.3516C34.8184 26.3516 33.7754 26.1406 32.8613 25.7188C31.9473 25.2969 31.2266 24.6641 30.6992 23.8203C30.1836 22.9648 29.9258 21.8809 29.9258 20.5684C29.9258 18.5996 30.6816 17.1055 32.1934 16.0859C33.7051 15.0664 35.9961 14.5098 39.0664 14.416L42.4062 14.2754V13.1855C42.4062 11.6738 42.0664 10.6074 41.3867 9.98633C40.7188 9.36523 39.7812 9.05469 38.5742 9.05469C37.5781 9.05469 36.623 9.20117 35.709 9.49414C34.7949 9.77539 33.916 10.1152 33.0723 10.5137L31.9473 7.94727C32.8613 7.47852 33.8984 7.08594 35.0586 6.76953C36.2305 6.45312 37.4551 6.29492 38.7324 6.29492ZM42.3711 16.5957L39.6641 16.7188C37.4258 16.8008 35.8496 17.1758 34.9355 17.8438C34.0332 18.5 33.582 19.4199 33.582 20.6035C33.582 21.6348 33.8926 22.3906 34.5137 22.8711C35.1348 23.3516 35.9551 23.5918 36.9746 23.5918C38.5449 23.5918 39.834 23.1523 40.8418 22.2734C41.8613 21.3828 42.3711 20.0703 42.3711 18.3359V16.5957Z" fill="#110303"/>
</svg>
