<svg width="180" height="43" viewBox="0 0 180 43" fill="none" xmlns="http://www.w3.org/2000/svg">
<path d="M21.6667 17.1909L43.3336 2.11019e-06L64.9999 17.1909L43.3336 34.3821L21.6667 17.1909" fill="white"/>
<path d="M0 17.191L21.6668 0.000105004L43.3336 17.191L21.6668 34.3822L0 17.191" fill="#3B557D"/>
<path d="M79.9668 35.9487C79.9668 36.801 79.752 37.6102 79.3223 38.3765C78.8926 39.1356 78.223 39.7515 77.3135 40.2241C76.4111 40.6968 75.2438 40.9331 73.8115 40.9331C73.0954 40.9331 72.4652 40.9009 71.9209 40.8364C71.3838 40.772 70.8825 40.6681 70.417 40.5249C69.9515 40.3745 69.4681 40.1812 68.9668 39.9448V36.1636C69.819 36.5933 70.6784 36.9227 71.5449 37.1519C72.4115 37.3739 73.1956 37.4849 73.8975 37.4849C74.32 37.4849 74.6637 37.4347 74.9287 37.3345C75.2008 37.2342 75.4014 37.0982 75.5303 36.9263C75.6592 36.7472 75.7236 36.5431 75.7236 36.314C75.7236 36.0418 75.627 35.8127 75.4336 35.6265C75.2474 35.4331 74.9466 35.2326 74.5312 35.0249C74.1159 34.8172 73.568 34.5594 72.8877 34.2515C72.3076 33.9793 71.7812 33.7 71.3086 33.4136C70.8431 33.1271 70.4421 32.8013 70.1055 32.4361C69.776 32.0637 69.5218 31.6304 69.3428 31.1362C69.1637 30.6421 69.0742 30.0584 69.0742 29.3853C69.0742 28.3755 69.3213 27.5305 69.8154 26.8501C70.3167 26.1626 71.0114 25.647 71.8994 25.3032C72.7946 24.9595 73.8258 24.7876 74.9932 24.7876C76.0173 24.7876 76.9375 24.9022 77.7539 25.1314C78.5775 25.3605 79.3151 25.6219 79.9668 25.9155L78.667 29.1919C77.9938 28.884 77.3314 28.6405 76.6797 28.4614C76.028 28.2752 75.4229 28.1821 74.8643 28.1821C74.499 28.1821 74.1982 28.2287 73.9619 28.3218C73.7327 28.4077 73.5609 28.5259 73.4463 28.6763C73.3389 28.8267 73.2852 28.9986 73.2852 29.1919C73.2852 29.4354 73.3783 29.6538 73.5645 29.8472C73.7578 30.0405 74.0765 30.2518 74.5205 30.481C74.9717 30.703 75.584 30.993 76.3574 31.3511C77.1237 31.6948 77.7754 32.0672 78.3125 32.4683C78.8496 32.8622 79.2578 33.3384 79.5371 33.897C79.8236 34.4484 79.9668 35.1323 79.9668 35.9487ZM91.7188 40.7183H82.3945V25.0132H91.7188V28.4185H86.6377V30.8892H91.3428V34.2944H86.6377V37.2593H91.7188V40.7183ZM99.6143 25.0132C101.039 25.0132 102.225 25.1887 103.17 25.5396C104.115 25.8833 104.824 26.3989 105.297 27.0864C105.777 27.7739 106.017 28.6297 106.017 29.6538C106.017 30.2912 105.909 30.8713 105.694 31.3941C105.479 31.9168 105.172 32.3859 104.771 32.8013C104.377 33.2095 103.904 33.5676 103.353 33.8755L107.929 40.7183H103.116L99.7861 35.0034H98.7119V40.7183H94.4688V25.0132H99.6143ZM99.5498 28.2251H98.7119V31.813H99.5068C100.159 31.813 100.692 31.6698 101.107 31.3833C101.523 31.0969 101.73 30.5848 101.73 29.8472C101.73 29.3387 101.559 28.9413 101.215 28.6548C100.871 28.3683 100.316 28.2251 99.5498 28.2251ZM122.817 40.7183H118.553V34.3159H113.622V40.7183H109.357V25.0132H113.622V30.8355H118.553V25.0132H122.817V40.7183ZM139.79 25.0132L134.645 40.7183H129.649L124.525 25.0132H129.295L131.433 32.9732C131.511 33.2739 131.601 33.6607 131.701 34.1333C131.809 34.5988 131.905 35.0643 131.991 35.5298C132.084 35.9953 132.142 36.3749 132.163 36.6685C132.192 36.3749 132.245 35.9989 132.324 35.5405C132.403 35.0822 132.489 34.6239 132.582 34.1655C132.682 33.7 132.775 33.3169 132.861 33.0161L135.042 25.0132H139.79ZM156.193 32.8443C156.193 34.0545 156.047 35.1574 155.753 36.1528C155.466 37.1411 155.015 37.9933 154.399 38.7095C153.784 39.4256 152.992 39.9771 152.025 40.3638C151.059 40.7433 149.902 40.9331 148.556 40.9331C147.238 40.9331 146.096 40.7433 145.129 40.3638C144.169 39.9771 143.378 39.4292 142.755 38.7202C142.132 38.0041 141.67 37.1483 141.369 36.1528C141.068 35.1574 140.918 34.0474 140.918 32.8228C140.918 31.19 141.187 29.772 141.724 28.5689C142.268 27.3586 143.106 26.424 144.237 25.7652C145.369 25.0991 146.815 24.7661 148.577 24.7661C150.368 24.7661 151.821 25.0991 152.938 25.7652C154.063 26.4312 154.886 27.3693 155.409 28.5796C155.932 29.7899 156.193 31.2114 156.193 32.8443ZM145.387 32.8443C145.387 33.7896 145.494 34.6024 145.709 35.2827C145.924 35.9631 146.264 36.4859 146.729 36.8511C147.195 37.2163 147.804 37.3989 148.556 37.3989C149.336 37.3989 149.956 37.2163 150.414 36.8511C150.88 36.4859 151.213 35.9631 151.413 35.2827C151.621 34.6024 151.725 33.7896 151.725 32.8443C151.725 31.4263 151.488 30.3055 151.016 29.4819C150.543 28.6584 149.73 28.2466 148.577 28.2466C147.811 28.2466 147.191 28.4328 146.719 28.8052C146.253 29.1776 145.913 29.7075 145.698 30.395C145.491 31.0825 145.387 31.8989 145.387 32.8443Z" fill="#3B557D"/>
</svg>
